<svg id="eUIP1HARru71" xmlns="http://www.w3.org/2000/svg" xmlns:xlink="http://www.w3.org/1999/xlink" viewBox="0 0 1920 500" shape-rendering="geometricPrecision" text-rendering="geometricPrecision" project-id="9859272b2782413a86c3d545c0e4530e" export-id="a10e8430df2a4ab9867b3a228eea69b7" cached="false"><defs><linearGradient id="eUIP1HARru718-fill" x1="-1226" y1="172.5" x2="1226" y2="-26.5" spreadMethod="pad" gradientUnits="userSpaceOnUse" gradientTransform="translate(0 0)"><stop id="eUIP1HARru718-fill-0" offset="0%" stop-color="#8724b2"/><stop id="eUIP1HARru718-fill-1" offset="98%" stop-color="#fc74ff"/><stop id="eUIP1HARru718-fill-2" offset="100%" stop-color="#fa00ff"/></linearGradient><linearGradient id="eUIP1HARru719-fill" x1="-1225.997" y1="172.5002" x2="1226" y2="-26.5" spreadMethod="pad" gradientUnits="userSpaceOnUse" gradientTransform="translate(0 0)"><stop id="eUIP1HARru719-fill-0" offset="0%" stop-color="#b817f6"/><stop id="eUIP1HARru719-fill-1" offset="54.569%" stop-color="#ff00f7"/></linearGradient><linearGradient id="eUIP1HARru720-fill" x1="754.195" y1="47.2846" x2="3212.94" y2="127.618" spreadMethod="pad" gradientUnits="userSpaceOnUse" gradientTransform="translate(0 0)"><stop id="eUIP1HARru720-fill-0" offset="0%" stop-color="#ad17f6"/><stop id="eUIP1HARru720-fill-1" offset="54.569%" stop-color="#177bd7"/></linearGradient></defs><g clip-path="url(#eUIP1HARru725)"><g><circle r="38" transform="translate(1295.5 204.5)" fill="none" stroke="#c917d7"/><circle r="43.5" transform="translate(1629 294)" fill="none" stroke="#c917d7"/><circle r="43.5" transform="translate(1040.5 84)" fill="none" stroke="#c917d7"/><circle r="12" transform="translate(1028.5 178.5)" fill="none" stroke="#c917d7"/><circle r="12" transform="translate(1167.5 190.5)" fill="none" stroke="#c917d7"/><circle r="12" transform="translate(1441.5 252.5)" fill="none" stroke="#c917d7"/><circle r="7" transform="translate(1415.5 312.5)" fill="none" stroke="#c917d7"/><circle r="12" transform="translate(1313.5 317.5)" fill="none" stroke="#c917d7"/><circle r="7" transform="translate(1047.5 267.5)" fill="none" stroke="#c917d7"/><circle r="7" transform="translate(1174.5 257.5)" fill="none" stroke="#c917d7"/><circle r="7" transform="translate(1507.5 359.5)" fill="none" stroke="#c917d7"/><circle r="7" transform="translate(1820.5 377.5)" fill="none" stroke="#c917d7"/><circle r="12" transform="translate(1772.5 328.5)" fill="none" stroke="#c917d7"/><circle r="12" transform="translate(1913.5 366.5)" fill="none" stroke="#c917d7"/><ellipse rx="1226" ry="403.5" transform="translate(2175.047106-74)" fill="url(#eUIP1HARru718-fill)"/><ellipse rx="1226" ry="403.5" transform="matrix(.998616 0.052588-.052588 0.998616 2100.723062 0.000001)" fill="url(#eUIP1HARru719-fill)" fill-opacity="0.2"/><path d="M3209.94,153.947C3184.67,375.357,2629.73,426.281,1957,349.5s-1208.514-252.1932-1183.244-473.603c25.27-221.409,591.114-338.653,1263.844-261.872c672.74,76.781,1197.61,318.5129,1172.34,539.922Z" transform="translate(18.124637 11.527885)" fill="url(#eUIP1HARru720-fill)" fill-opacity="0.2"/><line x1="1286.41" y1="85.4142" x2="1230.41" y2="141.414" fill="none" stroke="#fff" stroke-width="4" stroke-opacity="0.39"/><line x1="1705.41" y1="101.414" x2="1678.41" y2="128.414" fill="none" stroke="#fff" stroke-width="4" stroke-opacity="0.39"/><line x1="1613.41" y1="-12.5858" x2="1542.41" y2="58.4142" fill="none" stroke="#fff" stroke-width="4" stroke-opacity="0.39"/><circle r="12" transform="translate(1624.5 165.5)" fill="none" stroke="#fff" stroke-opacity="0.46"/></g><clipPath id="eUIP1HARru725"><rect width="1920" height="500" rx="0" ry="0" fill="#fff"/></clipPath></g></svg>
