<svg id="elOGyXo3VnQ1" xmlns="http://www.w3.org/2000/svg" xmlns:xlink="http://www.w3.org/1999/xlink" viewBox="0 0 1190 500" shape-rendering="geometricPrecision" text-rendering="geometricPrecision" project-id="9859272b2782413a86c3d545c0e4530e" export-id="6183fba066054f4089c05f5e83ae7064" cached="false"><defs><linearGradient id="elOGyXo3VnQ18-fill" x1="-1226" y1="172.5" x2="1226" y2="-26.5" spreadMethod="pad" gradientUnits="userSpaceOnUse" gradientTransform="translate(0 0)"><stop id="elOGyXo3VnQ18-fill-0" offset="0%" stop-color="#8724b2"/><stop id="elOGyXo3VnQ18-fill-1" offset="98%" stop-color="#fc74ff"/><stop id="elOGyXo3VnQ18-fill-2" offset="100%" stop-color="#fa00ff"/></linearGradient><linearGradient id="elOGyXo3VnQ19-fill" x1="-1225.997" y1="172.5002" x2="1226" y2="-26.5" spreadMethod="pad" gradientUnits="userSpaceOnUse" gradientTransform="translate(0 0)"><stop id="elOGyXo3VnQ19-fill-0" offset="0%" stop-color="#b817f6"/><stop id="elOGyXo3VnQ19-fill-1" offset="54.569%" stop-color="#ff00f7"/></linearGradient><linearGradient id="elOGyXo3VnQ20-fill" x1="754.195" y1="47.2846" x2="3212.94" y2="127.618" spreadMethod="pad" gradientUnits="userSpaceOnUse" gradientTransform="translate(0 0)"><stop id="elOGyXo3VnQ20-fill-0" offset="0%" stop-color="#ad17f6"/><stop id="elOGyXo3VnQ20-fill-1" offset="54.569%" stop-color="#177bd7"/></linearGradient></defs><g clip-path="url(#elOGyXo3VnQ25)"><g><circle r="38" transform="translate(318.963626 319.909837)" fill="none" stroke="#c917d7"/><circle r="43.5" transform="translate(652.463626 409.409839)" fill="none" stroke="#c917d7"/><circle r="43.5" transform="translate(63.963626 199.409837)" fill="none" stroke="#c917d7"/><circle r="12" transform="translate(51.963626 293.909837)" fill="none" stroke="#c917d7"/><circle r="7" transform="translate(438.963626 427.909839)" fill="none" stroke="#c917d7"/><circle r="12" transform="translate(190.963626 305.909837)" fill="none" stroke="#c917d7"/><circle r="12" transform="translate(464.963626 367.909839)" fill="none" stroke="#c917d7"/><circle r="12" transform="translate(336.963626 432.909839)" fill="none" stroke="#c917d7"/><circle r="7" transform="translate(70.963626 382.909839)" fill="none" stroke="#c917d7"/><circle r="7" transform="translate(197.963626 372.909839)" fill="none" stroke="#c917d7"/><circle r="7" transform="translate(530.963626 474.909839)" fill="none" stroke="#c917d7"/><circle r="7" transform="translate(843.963626 492.909839)" fill="none" stroke="#c917d7"/><circle r="12" transform="translate(795.963626 443.909839)" fill="none" stroke="#c917d7"/><circle r="12" transform="translate(936.963626 481.909839)" fill="none" stroke="#c917d7"/><ellipse rx="1226" ry="403.5" transform="translate(1198.510732 41.409837)" fill="url(#elOGyXo3VnQ18-fill)"/><ellipse rx="1226" ry="403.5" transform="matrix(.998616 0.052588-.052588 0.998616 1198.510732 138.324038)" fill="url(#elOGyXo3VnQ19-fill)" fill-opacity="0.2"/><path d="M3209.94,153.947C3184.67,375.357,2629.73,426.281,1957,349.5s-1208.514-252.1932-1183.244-473.603c25.27-221.409,591.114-338.653,1263.844-261.872c672.74,76.781,1197.61,318.5129,1172.34,539.922Z" transform="translate(-958.411737 126.937722)" fill="url(#elOGyXo3VnQ20-fill)" fill-opacity="0.2"/><line x1="1286.41" y1="85.4142" x2="1230.41" y2="141.414" transform="translate(-976.536374 115.409837)" fill="none" stroke="#fff" stroke-width="4" stroke-opacity="0.39"/><line x1="1705.41" y1="101.414" x2="1678.41" y2="128.414" transform="translate(-976.536374 115.409837)" fill="none" stroke="#fff" stroke-width="4" stroke-opacity="0.39"/><line x1="1613.41" y1="-12.5858" x2="1542.41" y2="58.4142" transform="translate(-976.536374 115.409837)" fill="none" stroke="#fff" stroke-width="4" stroke-opacity="0.39"/><circle r="12" transform="translate(647.963626 280.909837)" fill="none" stroke="#fff" stroke-opacity="0.46"/></g><clipPath id="elOGyXo3VnQ25"><rect width="1920" height="500" rx="0" ry="0" fill="#fff"/></clipPath></g></svg>
